<?xml version="1.0" encoding="utf-8"?>
<!-- Generator: Adobe Illustrator 25.1.0, SVG Export Plug-In . SVG Version: 6.00 Build 0)  -->
<svg version="1.1" id="Layer_1" xmlns="http://www.w3.org/2000/svg" xmlns:xlink="http://www.w3.org/1999/xlink" x="0px" y="0px"
	 viewBox="0 0 1920 1080" style="enable-background:new 0 0 1920 1080;" xml:space="preserve">
<style type="text/css">
	.st0{stroke:#000000;stroke-miterlimit:10;}
	.st1{fill:#FFFFFF;stroke:#000000;stroke-width:10;stroke-miterlimit:10;}
	.st2{fill:none;stroke:#48E7C3;stroke-width:5;stroke-miterlimit:10;}
	.st3{fill:#FFFFFF;stroke:#48E7C3;stroke-width:9;stroke-miterlimit:10;}
	.st4{fill:#FFFFFF;stroke:#48E7C3;stroke-width:10;stroke-miterlimit:10;}
	.st5{fill:#FFFFFF;stroke:#000000;stroke-width:5;stroke-miterlimit:10;}
	.st6{fill:#FFFFFF;stroke:#666666;stroke-width:5;stroke-miterlimit:10;}
	.st7{fill:#48E7C3;stroke:#48E7C3;stroke-width:5;stroke-miterlimit:10;}
	.st8{fill:#FFFFFF;stroke:#999999;stroke-width:5;stroke-miterlimit:10;}
	.st9{fill:none;stroke:#999999;stroke-width:5;stroke-miterlimit:10;}
	.st10{fill:none;stroke:#B3B3B3;stroke-miterlimit:10;}
	.st11{fill:#B3B3B3;}
	.st12{fill:none;stroke:#000000;stroke-width:5;stroke-miterlimit:10;}
	.st13{fill:#48E7C3;}
	.st14{stroke:#000000;stroke-width:3;stroke-linecap:round;stroke-linejoin:round;stroke-miterlimit:10;}
	.st15{fill:none;stroke:#C7D81E;stroke-width:9;stroke-linecap:round;stroke-linejoin:round;stroke-miterlimit:10;}
	.st16{fill:#48E7C3;stroke:#48E7C3;stroke-miterlimit:10;}
	.st17{fill:none;stroke:#48E7C3;stroke-width:6;stroke-miterlimit:10;}
</style>
<polyline class="st0" points="1119.8,477.5 1143.1,477.5 1143.1,487.1 1119.8,487.1 "/>
<path class="st1" d="M485.5,835.1"/>
<path class="st2" d="M766.7,534.1c-2.4-17.6,8-33.8,21.7-33.8l56.4,14c20.3,5,41,5.4,61.4,1.1l55.5-18.1c5.9-1.2,19.2-7.7,27.2-1.6
	c6.5,5,6.1,16.4,6.1,22.6c0,4.6-0.6,8.4-1.2,10.9c-16.1,58.5-32.2,116.9-48.3,175.4c-3.8,24.3-20.2,41.8-39.2,41.8h-204
	c-14.4,0-24.6-18.2-20.4-36.1l3.7-15.5c4.7-20,19.2-33.2,35.2-32.2l27.8,1.8c16.3,1,30.1-15.4,30.9-36.6v0L766.7,534.1z"/>
<line class="st3" x1="735.6" y1="746.3" x2="702.8" y2="893"/>
<line class="st3" x1="764.9" y1="746.3" x2="764.9" y2="815.5"/>
<line class="st4" x1="879.4" y1="746.3" x2="901.1" y2="893"/>
<line class="st3" x1="910.9" y1="746.3" x2="945.9" y2="831.7"/>
<path class="st5" d="M865.5,660.9"/>
<path class="st5" d="M904.3,516"/>
<path class="st5" d="M964.3,511.2"/>
<path class="st5" d="M921.5,672.3"/>
<path class="st6" d="M792.5,527.7"/>
<path class="st7" d="M960.8,649l-7.6,1.7c-15.3,3.5-27.5,15.6-31.7,31.4l-1.4,5.1c-6,22.4-18.9,42.1-36.8,55.9l0,0l23,3.2l26.5-13.1
	L960.8,649z"/>
<path class="st8" d="M799.5,516"/>
<path class="st9" d="M1116.1,283.9"/>
<path class="st10" d="M751.7,101"/>
<g>
	<g>
		<path class="st11" d="M792,517.5c30.4,8.5,60.8,17.9,92.4,20.2c15.1,1.1,30.4,0.7,45.4-0.7c13.7-1.2,27.4-3.4,40.7-6.8
			c13.5-3.5,26.7-8.2,39-14.7c1.7-0.9,0.2-3.5-1.5-2.6c-22.8,12-48.4,18-73.9,20.7c-14.8,1.5-29.7,2.1-44.5,1.4
			c-15.6-0.7-31-3.3-46.1-6.8c-17.1-3.9-33.9-8.9-50.7-13.6C790.9,514.1,790.1,517,792,517.5L792,517.5z"/>
	</g>
</g>
<g>
	<g>
		<path class="st11" d="M771,540c30.1,8.5,60.3,17.9,91.7,20.2c14.9,1.1,30.1,0.6,44.9-0.7c13.5-1.2,27-3.4,40.2-6.9
			c13.2-3.5,26.2-8.2,38.3-14.6c1.7-0.9,0.2-3.5-1.5-2.6c-22.4,11.9-47.6,18-72.6,20.7c-14.6,1.6-29.4,2.1-44,1.5
			c-15.4-0.7-30.7-3.3-45.8-6.8c-17-3.9-33.7-8.9-50.4-13.6C769.9,536.6,769.1,539.5,771,540L771,540z"/>
	</g>
</g>
<g>
	<g>
		<path class="st11" d="M776.2,557.3c28.8,8.5,57.7,17.9,87.8,20.2c14.4,1.1,29,0.7,43.4-0.7c13-1.2,25.9-3.4,38.4-6.8
			c12.9-3.5,25.4-8.3,37.1-14.7c1.7-0.9,0.2-3.5-1.5-2.6c-21.5,11.9-45.9,18-70.1,20.7c-13.9,1.5-28.1,2.1-42.1,1.4
			c-14.9-0.7-29.6-3.3-44-6.8c-16.2-3.9-32.2-8.9-48.2-13.6C775.1,553.9,774.3,556.8,776.2,557.3L776.2,557.3z"/>
	</g>
</g>
<g>
	<g>
		<path class="st11" d="M777,577.6c27.8,8.5,55.7,17.9,84.9,20.2c13.9,1.1,27.9,0.7,41.8-0.7c12.6-1.2,25.2-3.4,37.4-6.9
			c12.3-3.5,24.3-8.3,35.5-14.6c1.7-1,0.2-3.6-1.5-2.6c-20.6,11.8-44,18-67.5,20.7c-13.4,1.5-27,2.1-40.4,1.4
			c-14.4-0.7-28.6-3.3-42.6-6.8c-15.8-3.9-31.2-8.9-46.7-13.6C775.9,574.1,775.1,577,777,577.6L777,577.6z"/>
	</g>
</g>
<g>
	<g>
		<path class="st11" d="M779,599.6c26.9,7.2,53.8,15.1,81.7,17c13.3,0.9,26.8,0.6,40.1-0.6c12.1-1,24.1-2.9,35.9-5.8
			c11.8-2.9,23.4-6.9,34.3-12.4c1.7-0.9,0.2-3.5-1.5-2.6c-20.1,10-42.5,15.1-64.7,17.4c-13,1.3-26.2,1.8-39.2,1.2
			c-13.7-0.6-27.3-2.8-40.7-5.7c-15.1-3.3-30-7.5-45-11.5C777.9,596.2,777.1,599.1,779,599.6L779,599.6z"/>
	</g>
</g>
<g>
	<g>
		<path class="st11" d="M783.8,620.6c25.2,6.9,50.5,14.4,76.7,16.3c12.5,0.9,25.3,0.6,37.8-0.5c11.4-1,22.7-2.7,33.8-5.5
			c11.2-2.8,22.1-6.7,32.4-11.9c1.7-0.9,0.2-3.5-1.5-2.6c-18.9,9.6-40,14.5-61,16.7c-12.3,1.3-24.7,1.7-37,1.1
			c-12.9-0.6-25.7-2.7-38.3-5.5c-14.2-3.1-28.1-7.2-42.1-11C782.7,617.2,781.9,620.1,783.8,620.6L783.8,620.6z"/>
	</g>
</g>
<g>
	<g>
		<path class="st11" d="M783.7,638.8c24.8,6.4,49.7,13.4,75.4,15.1c12.3,0.8,24.7,0.5,37-0.5c11.2-0.9,22.4-2.5,33.4-5.1
			c10.9-2.6,21.7-6.2,31.8-11c1.7-0.8,0.2-3.4-1.5-2.6c-18.7,9-39.4,13.4-59.9,15.4c-12.1,1.2-24.3,1.6-36.4,1.1
			c-12.6-0.5-25.2-2.5-37.5-5.1c-13.9-2.9-27.6-6.6-41.4-10.2C782.6,635.5,781.8,638.4,783.7,638.8L783.7,638.8z"/>
	</g>
</g>
<g>
	<g>
		<path class="st11" d="M772.4,656.9c1.7,2.4,4.6,3.2,7.3,4.1c2.3,0.8,4.5,1.5,6.8,2.1c5,1.4,10,2.5,15.1,3.5
			c11,2.1,22.1,3.5,33.2,4.4c17.5,1.6,35.2,2.3,52.8,2c4.1-0.1,8.1-0.2,12.2-0.4c7.8-0.4,15.7-1.3,22.6-5.2c1.7-0.9,0.2-3.5-1.5-2.6
			c-6.1,3.3-13,4.3-19.8,4.7c-4,0.2-8,0.4-12.1,0.5c-6.7,0.1-13.3,0.1-20-0.1c-20.6-0.5-41.3-1.9-61.7-5.3c-5.7-1-11.4-2.1-17.1-3.6
			c-2.6-0.7-5.1-1.4-7.6-2.2c-1.2-0.4-2.4-0.8-3.6-1.2c-1.4-0.5-3.2-1-4.1-2.3C773.8,653.9,771.2,655.4,772.4,656.9L772.4,656.9z"/>
	</g>
</g>
<line class="st4" x1="825.9" y1="509.6" x2="816.5" y2="667.6"/>
<path class="st4" d="M880.4,519.2L874,671.6"/>
<line class="st4" x1="933.8" y1="506.3" x2="928.5" y2="667.9"/>
<g>
	<g>
		<path class="st11" d="M688.1,729.8c6.5,2.5,13,4.9,19.5,7.4c1.8,0.7,2.6-2.2,0.8-2.9c-6.5-2.5-13-4.9-19.5-7.4
			C687.1,726.2,686.4,729.1,688.1,729.8L688.1,729.8z"/>
	</g>
</g>
<g>
	<g>
		<path class="st11" d="M689.3,715.1c2.4,0.1,4.5,1.4,6.5,2.6c1.9,1.1,3.7,2.2,5.5,3.4c3.6,2.3,7.2,4.8,10.8,7.1
			c7.1,4.6,14.8,8.7,23.2,10.2c1.9,0.3,2.7-2.6,0.8-2.9c-13.6-2.3-24.3-11.4-35.7-18.5c-3.4-2.1-7-4.7-11.1-4.8
			C687.3,712,687.3,715,689.3,715.1L689.3,715.1z"/>
	</g>
</g>
<g>
	<g>
		<path class="st11" d="M692.3,700.9c5.4,0.9,10.2,3.5,14.9,6.1c5.3,2.9,10.5,5.8,15.8,8.7c5.3,2.9,10.6,5.8,15.8,8.7
			c5,2.7,10,5.6,15.1,8.1c5.4,2.6,11.1,4.7,17.2,4.8c1.9,0,1.9-3,0-3c-5.4-0.1-10.5-1.9-15.3-4.2c-5.1-2.4-10-5.3-14.9-8
			c-10.4-5.7-20.8-11.4-31.2-17.1c-5.3-2.9-10.7-5.9-16.7-7C691.2,697.7,690.4,700.6,692.3,700.9L692.3,700.9z"/>
	</g>
</g>
<g>
	<g>
		<path class="st11" d="M698.5,685.4c27.2,15.8,54.3,32.4,82.9,45.6c7.9,3.6,15.9,7,24.1,10c1.8,0.7,2.6-2.2,0.8-2.9
			c-28.9-10.7-55.8-26-82.3-41.5c-8-4.6-15.9-9.2-23.9-13.9C698.3,681.8,696.8,684.4,698.5,685.4L698.5,685.4z"/>
	</g>
</g>
<g>
	<g>
		<path class="st11" d="M712.8,677.4c10,2,19.2,6.4,28.2,11.1c8.4,4.3,16.5,9,24.7,13.8c16.2,9.6,32.3,19.5,49.5,27.3
			c9.6,4.3,19.6,8,29.9,10.5c1.9,0.5,2.7-2.4,0.8-2.9c-18.4-4.5-35.5-12.6-51.9-21.8c-16.5-9.2-32.4-19.5-49.2-28.3
			c-9.9-5.2-20.2-10.3-31.2-12.6C711.7,674.1,710.9,677,712.8,677.4L712.8,677.4z"/>
	</g>
</g>
<g>
	<g>
		<path class="st11" d="M742.6,672.7c17,9.8,34.1,19.6,51.1,29.4c15.7,9,31.3,18.6,48.1,25.6c9.2,3.8,18.7,6.8,28.6,8.2
			c0.8,0.1,1.6-0.2,1.8-1c0.2-0.7-0.2-1.7-1-1.8c-17.5-2.5-33.7-9.8-49.1-18.2c-16.7-9.1-33.1-18.8-49.6-28.3
			c-9.5-5.4-19-10.9-28.5-16.3C742.5,669.2,741,671.7,742.6,672.7L742.6,672.7z"/>
	</g>
</g>
<g>
	<g>
		<path class="st11" d="M767.9,668.6c15.8,9.2,31.8,18.4,48.9,24.9c17.8,6.8,36.6,9.8,55.3,13.1c10.9,1.9,21.8,3.9,32.7,5.8
			c1.9,0.3,2.7-2.6,0.8-2.9c-19-3.4-38-6.5-56.9-10.3c-9.2-1.9-18.3-4.1-27.1-7.2c-8.7-3.1-17.1-6.9-25.3-11.1
			c-9.1-4.7-18-9.8-26.8-14.9C767.8,665,766.2,667.6,767.9,668.6L767.9,668.6z"/>
	</g>
</g>
<g>
	<g>
		<path class="st11" d="M822.5,681.3c19.8,5.8,40.2,9.4,60.8,10.7c5.8,0.4,11.6,0.6,17.5,0.6c1.9,0,1.9-3,0-3
			c-20.5,0-40.9-2.3-60.8-6.8c-5.6-1.3-11.1-2.7-16.6-4.3C821.5,677.8,820.7,680.7,822.5,681.3L822.5,681.3z"/>
	</g>
</g>
<path class="st12" d="M727.8,780.9"/>
<ellipse transform="matrix(1 -5.929453e-03 5.929453e-03 1 -1.3614 6.6457)" class="st13" cx="1120.1" cy="232.9" rx="45.1" ry="44.9"/>
<ellipse class="st14" cx="1131.2" cy="238.5" rx="39.7" ry="39.8"/>
<line class="st15" x1="1146.7" y1="237.9" x2="1146.7" y2="778"/>
<ellipse class="st13" cx="1174.2" cy="385" rx="42.8" ry="42.8"/>
<path class="st0" d="M1079.9,518.5c24.4-3.7,35.9-11.3,41.1-24.9c7.5-19.3-0.6-42.7-39.4-58.6L1079.9,518.5z"/>
<ellipse class="st16" cx="1073.7" cy="477.5" rx="39.7" ry="39.5"/>
<path class="st13" d="M1063.2,798h159.2l0,0c-10.4-10.3-26.8-16.4-44.1-16.4h-30.6h-41.7c-13,0-25.5,3.8-34.8,10.6L1063.2,798z"/>
<line class="st17" x1="394" y1="347.9" x2="394" y2="672.1"/>
<line class="st17" x1="440" y1="277" x2="440" y2="738"/>
<line class="st17" x1="486" y1="226" x2="485" y2="791"/>
<line class="st17" x1="532" y1="176" x2="531" y2="835"/>
<line class="st17" x1="583" y1="147" x2="582" y2="877"/>
<line class="st17" x1="634" y1="101" x2="633" y2="932"/>
<ellipse class="st17" cx="842" cy="511.5" rx="495" ry="460.5"/>
</svg>
